<?xml version="1.0" encoding="UTF-8"?> <!-- Generator: Adobe Illustrator 21.0.0, SVG Export Plug-In . SVG Version: 6.00 Build 0) --> <svg xmlns="http://www.w3.org/2000/svg" xmlns:xlink="http://www.w3.org/1999/xlink" id="Layer_1" x="0px" y="0px" viewBox="0 0 100.353 100.352" style="enable-background:new 0 0 100.353 100.352;" xml:space="preserve"> <path d="M79.562,46.336L67.118,30.004L79.54,14.476c0.36-0.45,0.43-1.067,0.181-1.587c-0.25-0.52-0.775-0.85-1.352-0.85H26.577 c-0.742,0-1.354,0.54-1.474,1.247c-0.034,0.125-0.058,0.254-0.058,0.39v74.355h-9.281c-0.829,0-1.5,0.671-1.5,1.5s0.671,1.5,1.5,1.5 h22.275c0.829,0,1.5-0.671,1.5-1.5s-0.671-1.5-1.5-1.5h-9.995V48.744h50.324c0.57,0,1.091-0.323,1.344-0.834 C79.965,47.4,79.907,46.79,79.562,46.336z M28.045,45.746V15.04h47.203L64.044,29.046c-0.43,0.538-0.439,1.299-0.022,1.846 L75.34,45.746L28.045,45.746L28.045,45.746z"></path> </svg> 